<svg width="52" height="27" viewBox="0 0 52 27" fill="none" xmlns="http://www.w3.org/2000/svg">
<path d="M0.45 26V0.799999H11.09C11.335 0.799999 11.6617 0.811666 12.07 0.834999C12.49 0.846666 12.8633 0.881666 13.19 0.939999C14.695 1.17333 15.9258 1.66917 16.8825 2.4275C17.8508 3.18583 18.5625 4.1425 19.0175 5.2975C19.4725 6.44083 19.7 7.71833 19.7 9.13C19.7 10.5417 19.4667 11.825 19 12.98C18.545 14.1233 17.8333 15.0742 16.865 15.8325C15.9083 16.5908 14.6833 17.0867 13.19 17.32C12.8633 17.3667 12.49 17.4017 12.07 17.425C11.65 17.4483 11.3233 17.46 11.09 17.46H5.21V26H0.45ZM5.21 13.015H10.88C11.125 13.015 11.3933 13.0033 11.685 12.98C11.9767 12.9567 12.245 12.91 12.49 12.84C13.1317 12.665 13.6275 12.3733 13.9775 11.965C14.3275 11.545 14.5667 11.0842 14.695 10.5825C14.835 10.0692 14.905 9.585 14.905 9.13C14.905 8.675 14.835 8.19667 14.695 7.695C14.5667 7.18167 14.3275 6.72083 13.9775 6.3125C13.6275 5.8925 13.1317 5.595 12.49 5.42C12.245 5.35 11.9767 5.30333 11.685 5.28C11.3933 5.25667 11.125 5.245 10.88 5.245H5.21V13.015ZM21.2887 26V7.1H25.4887V11.72L25.0337 11.125C25.2787 10.4717 25.6053 9.87667 26.0137 9.34C26.422 8.80333 26.9237 8.36 27.5187 8.01C27.9737 7.73 28.4695 7.51417 29.0062 7.3625C29.5428 7.19917 30.097 7.1 30.6687 7.065C31.2403 7.01833 31.812 7.03 32.3837 7.1V11.545C31.8587 11.3817 31.2462 11.3292 30.5462 11.3875C29.8578 11.4342 29.2337 11.5917 28.6737 11.86C28.1137 12.1167 27.6412 12.4608 27.2562 12.8925C26.8712 13.3125 26.5795 13.8142 26.3812 14.3975C26.1828 14.9692 26.0837 15.6167 26.0837 16.34V26H21.2887ZM41.9507 26.525C40.049 26.525 38.3807 26.0992 36.9457 25.2475C35.5107 24.3958 34.3907 23.2233 33.5857 21.73C32.7924 20.225 32.3957 18.4983 32.3957 16.55C32.3957 14.5783 32.804 12.8458 33.6207 11.3525C34.4374 9.8475 35.5632 8.675 36.9982 7.835C38.4332 6.995 40.084 6.575 41.9507 6.575C43.8524 6.575 45.5207 7.00083 46.9557 7.8525C48.4024 8.70417 49.5282 9.8825 50.3332 11.3875C51.1382 12.8808 51.5407 14.6017 51.5407 16.55C51.5407 18.51 51.1324 20.2425 50.3157 21.7475C49.5107 23.2408 48.3849 24.4133 46.9382 25.265C45.5032 26.105 43.8407 26.525 41.9507 26.525ZM41.9507 22.08C43.479 22.08 44.6165 21.5667 45.3632 20.54C46.1215 19.5017 46.5007 18.1717 46.5007 16.55C46.5007 14.87 46.1157 13.5283 45.3457 12.525C44.5874 11.5217 43.4557 11.02 41.9507 11.02C40.9124 11.02 40.0607 11.2533 39.3957 11.72C38.7307 12.1867 38.2349 12.8342 37.9082 13.6625C37.5932 14.4908 37.4357 15.4533 37.4357 16.55C37.4357 18.2417 37.8149 19.5892 38.5732 20.5925C39.3432 21.5842 40.469 22.08 41.9507 22.08Z" fill="#6DACE7"/>
</svg>
