<svg width="18" height="15" viewBox="0 0 18 15" fill="none" xmlns="http://www.w3.org/2000/svg">
<path id="Vector" d="M8.73146 14.2504C8.82778 14.1544 8.9042 14.0403 8.95635 13.9147C9.00849 13.7892 9.03533 13.6545 9.03533 13.5186C9.03533 13.3826 9.00849 13.2479 8.95635 13.1224C8.9042 12.9968 8.82778 12.8827 8.73146 12.7867L4.29843 8.35371L16.9544 8.35371C17.2284 8.35371 17.4912 8.24486 17.6849 8.05111C17.8787 7.85736 17.9875 7.59458 17.9875 7.32057C17.9875 7.04657 17.8787 6.78378 17.6849 6.59003C17.4912 6.39628 17.2284 6.28743 16.9544 6.28743L4.29843 6.28743L8.73146 1.85268C8.92555 1.65859 9.03459 1.39535 9.03459 1.12087C9.03459 0.846389 8.92555 0.583149 8.73146 0.389062C8.53738 0.194974 8.27414 0.0859372 7.99966 0.0859372C7.72517 0.0859372 7.46194 0.194975 7.26785 0.389062L1.06901 6.5879C0.97269 6.68389 0.896268 6.79794 0.844124 6.92352C0.791979 7.0491 0.765137 7.18374 0.765137 7.31971C0.765137 7.45569 0.791979 7.59033 0.844124 7.71591C0.896268 7.84149 0.97269 7.95554 1.06901 8.05152L7.26785 14.2504C7.36383 14.3467 7.47788 14.4231 7.60346 14.4752C7.72904 14.5274 7.86368 14.5542 7.99966 14.5542C8.13563 14.5542 8.27027 14.5274 8.39585 14.4752C8.52143 14.4231 8.63548 14.3467 8.73146 14.2504Z" fill="#FF5BEF"/>
</svg>
