<svg width="18" height="16" viewBox="0 0 18 16" fill="none" xmlns="http://www.w3.org/2000/svg">
<path id="Vector" d="M10.0071 1.2594C9.91075 1.35539 9.83432 1.46944 9.78218 1.59502C9.73003 1.7206 9.70319 1.85524 9.70319 1.99121C9.70319 2.12719 9.73003 2.26182 9.78218 2.3874C9.83432 2.51298 9.91075 2.62704 10.0071 2.72302L14.4401 7.15605L1.78413 7.15605C1.51012 7.15605 1.24734 7.2649 1.05359 7.45865C0.859835 7.6524 0.750986 7.91519 0.750986 8.18919C0.750986 8.4632 0.859835 8.72598 1.05359 8.91973C1.24734 9.11348 1.51012 9.22233 1.78413 9.22233L14.4401 9.22233L10.0071 13.6571C9.81297 13.8512 9.70394 14.1144 9.70394 14.3889C9.70394 14.6634 9.81297 14.9266 10.0071 15.1207C10.2011 15.3148 10.4644 15.4238 10.7389 15.4238C11.0134 15.4238 11.2766 15.3148 11.4707 15.1207L17.6695 8.92186C17.7658 8.82588 17.8423 8.71183 17.8944 8.58625C17.9465 8.46067 17.9734 8.32603 17.9734 8.19005C17.9734 8.05408 17.9465 7.91944 17.8944 7.79386C17.8423 7.66828 17.7658 7.55423 17.6695 7.45825L11.4707 1.2594C11.3747 1.16309 11.2606 1.08667 11.1351 1.03452C11.0095 0.982377 10.8748 0.955534 10.7389 0.955534C10.6029 0.955534 10.4683 0.982377 10.3427 1.03452C10.2171 1.08667 10.103 1.16309 10.0071 1.2594Z" fill="#FF5BEF"/>
</svg>
